<?xml version="1.0" encoding="UTF-8"?><svg id="Ebene_1" xmlns="http://www.w3.org/2000/svg" xmlns:xlink="http://www.w3.org/1999/xlink" viewBox="0 0 1920 1340"><defs><style>.cls-1{fill:none;}.cls-2{fill:#0361ff;}.cls-3{fill:#ff57a1;}.cls-4,.cls-5{fill:#fff;}.cls-6{fill:#ac7642;}.cls-7,.cls-8{fill:#dddedc;}.cls-9{font-family:ElizaMono-Italic, 'Eliza Mono';font-style:italic;}.cls-10,.cls-8{font-size:140px;}.cls-11{clip-path:url(#clippath-20);}.cls-12{clip-path:url(#clippath-21);}.cls-13{clip-path:url(#clippath-19);}.cls-14{clip-path:url(#clippath-18);}.cls-15{font-family:ElizaMono-Regular, 'Eliza Mono';}.cls-5,.cls-16{font-size:199px;}</style><clipPath id="clippath-18"><rect class="cls-1" x="538" y="412" width="241" height="387"/></clipPath><clipPath id="clippath-19"><rect class="cls-1" x="1264" y="77" width="656" height="280"/></clipPath><clipPath id="clippath-20"><polygon class="cls-7" points="656 209 656 95 436 95 436 245 561 245 561 448 747 448 747 209 656 209"/></clipPath><clipPath id="clippath-21"><rect class="cls-4" x="905" y="799.3" width="297" height="138.7"/></clipPath></defs><rect class="cls-7" x="252" y="-70" width="1777" height="826"/><rect class="cls-2" x="-71" y="48" width="1341" height="1181"/><rect class="cls-7" x="779" y="671" width="1581" height="128.29"/><rect class="cls-7" x="187" y="1098" width="1747" height="826"/><rect class="cls-7" x="-28" y="921" width="1747" height="826"/><rect class="cls-4" x="847" y="357" width="1248" height="115"/><rect class="cls-4" x="-274" y="272" width="1295" height="167"/><rect class="cls-4" x="611" y="972" width="1607" height="187"/><rect class="cls-2" x="-3" y="968" width="782" height="55"/><rect class="cls-3" x="353" y="-24" width="1012" height="44"/><rect class="cls-7" x="1490" y="773" width="633" height="178"/><rect class="cls-7" x="-62" y="-26" width="121" height="1241"/><rect class="cls-6" x="308" y="215" width="319" height="757"/><rect class="cls-4" x="58" y="597" width="21" height="1241"/><rect class="cls-3" x="1720.29" y="80.78" width="189.63" height="22.46" transform="translate(991.45 1712.1) rotate(-65.95)"/><rect class="cls-4" x="1765" y="183" width="21" height="1241"/><rect class="cls-2" x="1270" y="652" width="330" height="1307"/><rect class="cls-6" x="642" y="-89" width="169" height="527"/><rect class="cls-6" x="1365" y="357" width="656" height="169"/><g><g><rect class="cls-6" x="897.04" y="-1" width="33.03" height="35.97"/><rect class="cls-6" x="1161.31" y="-1" width="33.03" height="35.97"/><rect class="cls-6" x="1029.17" y="-1" width="33.03" height="35.97"/><rect class="cls-6" x="1293.45" y="-1" width="33.03" height="35.97"/><rect class="cls-6" x="963.11" y="-1" width="33.03" height="35.97"/><rect class="cls-6" x="1227.38" y="-1" width="33.03" height="35.97"/><rect class="cls-6" x="1095.24" y="-1" width="33.03" height="35.97"/><rect class="cls-6" x="1359.52" y="-1" width="33.03" height="35.97"/></g><g><rect class="cls-2" x="1063.26" y="35.85" width="33.03" height="35.97"/><rect class="cls-2" x="1327.53" y="35.85" width="33.03" height="35.97"/><rect class="cls-2" x="1856.07" y="35.85" width="33.03" height="35.97"/><rect class="cls-2" x="1195.39" y="35.85" width="33.03" height="35.97"/><rect class="cls-2" x="1723.94" y="35.85" width="33.03" height="35.97"/><rect class="cls-2" x="1459.67" y="35.85" width="33.03" height="35.97"/><rect class="cls-2" x="1129.33" y="35.85" width="33.03" height="35.97"/><rect class="cls-2" x="1393.6" y="35.85" width="33.03" height="35.97"/><rect class="cls-2" x="1261.46" y="35.85" width="33.03" height="35.97"/><rect class="cls-2" x="1790" y="35.85" width="33.04" height="35.97"/></g></g><text/><rect class="cls-2" x="-104" y="319" width="649" height="36"/><rect class="cls-2" x="492" y="355" width="512" height="17"/><rect class="cls-4" x="538" y="412" width="241" height="387"/><text class="cls-10" transform="translate(231.01 577.25)"><tspan class="cls-15"><tspan x="0" y="0">LESEVERHALTEN UND </tspan></tspan><tspan class="cls-9" x="168" y="111">SPRACHSYSTEME</tspan><tspan class="cls-15" x="1259.98" y="111"> </tspan><tspan class="cls-15"><tspan x="252" y="222">SPIELERISCH </tspan></tspan><tspan class="cls-9"><tspan x="210" y="333">HINTERFRAGEN</tspan></tspan></text><rect class="cls-4" x="538" y="412" width="241" height="387"/><text class="cls-16" transform="translate(74.5 299.29)"><tspan class="cls-15" x="0" y="0">H</tspan><tspan class="cls-9" x="119.4" y="0">A</tspan><tspan class="cls-15" x="238.8" y="0">CK</tspan><tspan class="cls-9" x="477.59" y="0">IN</tspan><tspan class="cls-15" x="716.39" y="0">G LANG</tspan><tspan class="cls-15"><tspan x="1293.41" y="151">UAGE </tspan></tspan></text><g class="cls-14"><text class="cls-8" transform="translate(231.01 577.25)"><tspan class="cls-15"><tspan x="0" y="0">LESEVERHALTEN UND </tspan></tspan><tspan class="cls-9" x="168" y="111">SPRACHSYSTEME</tspan><tspan class="cls-15" x="1259.98" y="111"> </tspan><tspan class="cls-15"><tspan x="252" y="222">SPIELERISCH </tspan></tspan><tspan class="cls-9"><tspan x="210" y="333">HINTERFRAGEN</tspan></tspan></text></g><g class="cls-13"><text class="cls-5" transform="translate(74.5 299.29)"><tspan class="cls-15" x="0" y="0">H</tspan><tspan class="cls-9" x="119.4" y="0">A</tspan><tspan class="cls-15" x="238.8" y="0">CK</tspan><tspan class="cls-9" x="477.59" y="0">IN</tspan><tspan class="cls-15" x="716.39" y="0">G LANG</tspan><tspan class="cls-15"><tspan x="1293.41" y="151">UAGE </tspan></tspan></text></g><g><rect class="cls-3" x="1786" y="500" width="19.5" height="71.3"/><rect class="cls-6" x="1805.5" y="571.3" width="19.5" height="71.3"/><rect class="cls-3" x="1786" y="642.59" width="19.5" height="71.3"/><rect class="cls-6" x="1805.5" y="714.3" width="19.5" height="71.3"/><rect class="cls-3" x="1786" y="785.59" width="19.5" height="71.3"/></g><rect class="cls-7" x="79" y="678" width="282" height="269"/><g><polygon class="cls-7" points="656 209 656 95 436 95 436 245 561 245 561 448 747 448 747 209 656 209"/><g class="cls-11"><text class="cls-5" transform="translate(74.5 299.29)"><tspan class="cls-15" x="0" y="0">H</tspan><tspan class="cls-9" x="119.4" y="0">A</tspan><tspan class="cls-15" x="238.8" y="0">CK</tspan><tspan class="cls-9" x="477.59" y="0">IN</tspan><tspan class="cls-15" x="716.39" y="0">G LANG</tspan><tspan class="cls-15"><tspan x="1293.41" y="151">UAGE </tspan></tspan></text><rect class="cls-4" x="538" y="412" width="241" height="387"/></g></g><rect class="cls-3" x="106" y="928" width="40" height="375"/><rect class="cls-7" x="672" y="405" width="157" height="43"/><g><rect x="696.43" y="38.66" width="238.57" height="65.34"/><rect x="663" y="38.66" width="47.11" height="39.51"/></g><rect class="cls-7" x="1366.24" y="679.66" width="265.76" height="65.34"/><rect class="cls-7" x="1339" y="679.66" width="28.47" height="39.51"/><g><rect class="cls-7" x="1214.66" y="119.66" width="247.34" height="65.34"/><rect class="cls-7" x="1091" y="119.66" width="137.84" height="39.51"/></g><g><rect class="cls-7" x="213.66" y="674.66" width="247.34" height="65.34"/><rect class="cls-7" x="179" y="674.66" width="48.84" height="39.51"/></g><rect class="cls-2" x="538" y="799" width="385" height="6"/><rect x="59" y="373" width="59" height="144"/><rect x="907" y="99" width="1013" height="23"/><g><rect x="79" y="634" width="163.46" height="192.31"/><rect x="184.77" y="826.31" width="57.69" height="57.69"/></g><g><rect x="1371" y="881.65" width="563.8" height="116.35"/><rect x="1495.37" y="826" width="530.63" height="63.74"/></g><g><rect class="cls-2" x="1472.31" y="865.24" width="378.98" height="52.76"/><rect class="cls-2" x="1411" y="840" width="356.69" height="28.91"/></g><rect x="115" y="298" width="110.56" height="95"/><rect x="210.44" y="310.71" width="228.56" height="68.29"/><rect x="489" y="906" width="150.58" height="47.33"/><rect class="cls-7" x="1765" y="230" width="435" height="76"/><rect x="587.95" y="953.33" width="86.05" height="21.51"/><rect x="127" y="576" width="135" height="84"/><g><rect class="cls-2" x="125" y="481.69" width="120.19" height="62.54"/><rect class="cls-2" x="200.81" y="440" width="120.19" height="45.86"/></g><g><rect class="cls-6" x="1708.19" y="449.4" width="203.81" height="42.6"/><rect class="cls-6" x="1541" y="421" width="242.45" height="36"/></g><g><rect class="cls-2" x="644" y="860.33" width="142.88" height="29"/><rect class="cls-2" x="734.12" y="841" width="142.88" height="21.27"/></g><g><rect class="cls-4" x="576" y="539.8" width="117.12" height="64.2"/><rect class="cls-4" x="649.88" y="497" width="117.12" height="47.08"/></g><g><rect x="913" y="422.2" width="266.13" height="58.8"/><rect x="1080.87" y="383" width="266.13" height="43.12"/></g><rect x="1100" y="799" width="35" height="5"/><rect x="1129" y="803" width="35" height="5"/><rect class="cls-2" x="206" y="206" width="99" height="41"/><rect class="cls-2" x="1004" y="627" width="84" height="24"/><rect class="cls-2" x="989" y="635" width="87" height="21"/><rect class="cls-2" x="1194" y="613" width="41" height="189"/><rect class="cls-2" x="1234" y="770" width="41" height="35"/><rect class="cls-7" x="1120" y="671" width="45" height="38"/><rect class="cls-2" x="1569" y="616" width="439" height="112"/><rect class="cls-2" x="1825" y="540" width="439" height="112"/><g><rect class="cls-6" x="20" y="773" width="223.72" height="55.38"/><rect class="cls-6" x="209.31" y="807.62" width="289.69" height="55.38"/></g><g><rect class="cls-6" x="349" y="512" width="118" height="7"/><rect class="cls-6" x="405" y="516" width="75" height="26"/></g><rect x="323" y="100" width="278" height="56"/><g><rect class="cls-4" x="905" y="799.3" width="297" height="138.7"/><g class="cls-12"><text class="cls-8" transform="translate(231.01 577.25)"><tspan class="cls-15"><tspan x="0" y="0">LESEVERHALTEN UND </tspan></tspan><tspan class="cls-9" x="168" y="111">SPRACHSYSTEME</tspan><tspan class="cls-15" x="1259.98" y="111"> </tspan><tspan class="cls-15"><tspan x="252" y="222">SPIELERISCH </tspan></tspan><tspan class="cls-9"><tspan x="210" y="333">HINTERFRAGEN</tspan></tspan></text></g></g><g><rect class="cls-4" x="1072.64" y="822.6" width="101.4" height="23.4"/><rect class="cls-4" x="1136.6" y="807" width="101.4" height="17.16"/></g><g><rect x="901.91" y="1035.27" width="30.88" height="620.57" transform="translate(-428.21 2262.91) rotate(-90)"/><rect x="1244.61" y="1106.61" width="49.43" height="409.34" transform="translate(-41.95 2580.61) rotate(-90)"/><rect x="1268.75" y="1084.77" width="182.52" height="227.97" transform="translate(161.26 2558.77) rotate(-90)"/><rect x="1029.6" y="829.72" width="98.41" height="707.2" transform="translate(-104.51 2262.12) rotate(-90)"/><rect x="803.3" y="440.82" width="98.41" height="1243" transform="translate(-209.82 1914.82) rotate(-90)"/></g></svg>