<?xml version="1.0" encoding="UTF-8"?><svg id="Ebene_1" xmlns="http://www.w3.org/2000/svg" xmlns:xlink="http://www.w3.org/1999/xlink" viewBox="0 0 1920 1340"><defs><style>.cls-1{fill:none;}.cls-2{fill:#0361ff;}.cls-3{fill:#ff57a1;}.cls-4,.cls-5{fill:#fff;}.cls-6,.cls-7{fill:#dddedc;}.cls-8{fill:#885b29;}.cls-9{font-family:ElizaMono-Italic, 'Eliza Mono';font-style:italic;}.cls-10,.cls-7{font-size:140px;}.cls-11{clip-path:url(#clippath-60);}.cls-12{clip-path:url(#clippath-61);}.cls-13{clip-path:url(#clippath-62);}.cls-14{clip-path:url(#clippath-63);}.cls-15{font-family:ElizaMono-Regular, 'Eliza Mono';}.cls-5,.cls-16{font-size:199px;}</style><clipPath id="clippath-60"><rect class="cls-4" x="860" y="412" width="339" height="227"/></clipPath><clipPath id="clippath-61"><rect class="cls-1" x="1264" y="347" width="656" height="280"/></clipPath><clipPath id="clippath-62"><polygon class="cls-6" points="285 209 285 95 65 95 65 245 190 245 190 448 376 448 376 209 285 209"/></clipPath><clipPath id="clippath-63"><rect class="cls-4" x="495" y="799.3" width="297" height="138.7"/></clipPath></defs><rect class="cls-6" x="252" y="-70" width="1777" height="826"/><rect class="cls-8" x="-71" y="77" width="1341" height="1152"/><rect class="cls-6" x="779" y="671" width="1581" height="128.29"/><rect class="cls-6" x="187" y="1098" width="1747" height="826"/><rect class="cls-6" x="-28" y="921" width="1747" height="826"/><rect class="cls-4" x="847" y="357" width="1248" height="115"/><rect class="cls-4" x="-274" y="272" width="1295" height="167"/><rect class="cls-4" x="611" y="972" width="1607" height="187"/><rect class="cls-2" x="302" y="968" width="477" height="55"/><rect class="cls-3" x="353" y="-24" width="1012" height="44"/><rect class="cls-6" x="1490" y="773" width="633" height="178"/><rect class="cls-6" x="-62" y="-26" width="93" height="1241"/><rect class="cls-2" x="308" y="215" width="319" height="757"/><rect class="cls-4" x="58" y="597" width="21" height="1241"/><rect class="cls-3" x="1720.29" y="80.78" width="189.63" height="22.46" transform="translate(991.45 1712.1) rotate(-65.95)"/><rect class="cls-4" x="1765" y="183" width="21" height="1241"/><rect class="cls-2" x="1270" y="652" width="330" height="1307"/><rect class="cls-8" x="642" y="-89" width="169" height="557"/><rect class="cls-8" x="1365" y="357" width="656" height="169"/><g><rect class="cls-3" x="260" y="1017.82" width="37.3" height="40.62"/><rect class="cls-3" x="1453.68" y="1017.82" width="37.3" height="40.62"/><rect class="cls-3" x="856.84" y="1017.82" width="37.3" height="40.62"/><rect class="cls-3" x="558.42" y="1017.82" width="37.3" height="40.62"/><rect class="cls-3" x="1752.1" y="1017.82" width="37.3" height="40.62"/><rect class="cls-3" x="1155.26" y="1017.82" width="37.3" height="40.62"/><rect class="cls-3" x="409.21" y="1017.82" width="37.3" height="40.62"/><rect class="cls-3" x="1602.89" y="1017.82" width="37.3" height="40.62"/><rect class="cls-3" x="1006.05" y="1017.82" width="37.3" height="40.62"/><rect class="cls-3" x="707.63" y="1017.82" width="37.3" height="40.62"/><rect class="cls-3" x="1901.31" y="1017.82" width="37.3" height="40.62"/><rect class="cls-3" x="1304.47" y="1017.82" width="37.3" height="40.62"/><rect class="cls-3" x="334.61" y="1017.82" width="37.3" height="40.62"/><rect class="cls-3" x="1533.31" y="1017.82" width="37.31" height="40.62"/><rect class="cls-3" x="931.45" y="1017.82" width="37.3" height="40.62"/><rect class="cls-3" x="633.03" y="1017.82" width="37.3" height="40.62"/><rect class="cls-3" x="1826.71" y="1017.82" width="37.3" height="40.62"/><rect class="cls-3" x="1229.87" y="1017.82" width="37.3" height="40.62"/><rect class="cls-3" x="483.82" y="1017.82" width="37.3" height="40.62"/><rect class="cls-3" x="1674.98" y="1017.82" width="37.31" height="40.62"/><rect class="cls-3" x="1080.66" y="1017.82" width="37.31" height="40.62"/><rect class="cls-3" x="782.24" y="1017.82" width="37.3" height="40.62"/><rect class="cls-3" x="1379.08" y="1017.82" width="37.3" height="40.62"/></g><g><rect class="cls-8" x="282.08" y="1038.21" width="37.3" height="40.62"/><rect class="cls-8" x="1475.76" y="1038.21" width="37.3" height="40.62"/><rect class="cls-8" x="878.92" y="1038.21" width="37.3" height="40.62"/><rect class="cls-8" x="580.5" y="1038.21" width="37.3" height="40.62"/><rect class="cls-8" x="1774.18" y="1038.21" width="37.3" height="40.62"/><rect class="cls-8" x="1177.34" y="1038.21" width="37.3" height="40.62"/><rect class="cls-8" x="431.29" y="1038.21" width="37.3" height="40.62"/><rect class="cls-8" x="1624.98" y="1038.21" width="37.3" height="40.62"/><rect class="cls-8" x="1028.13" y="1038.21" width="37.3" height="40.62"/><rect class="cls-8" x="729.71" y="1038.21" width="37.3" height="40.62"/><rect class="cls-8" x="1326.55" y="1038.21" width="37.3" height="40.62"/><rect class="cls-8" x="356.69" y="1038.21" width="37.3" height="40.62"/><rect class="cls-8" x="1555.4" y="1038.21" width="37.31" height="40.62"/><rect class="cls-8" x="953.53" y="1038.21" width="37.3" height="40.62"/><rect class="cls-8" x="655.11" y="1038.21" width="37.3" height="40.62"/><rect class="cls-8" x="1848.79" y="1038.21" width="37.3" height="40.62"/><rect class="cls-8" x="1251.95" y="1038.21" width="37.3" height="40.62"/><rect class="cls-8" x="505.9" y="1038.21" width="37.3" height="40.62"/><rect class="cls-8" x="1697.07" y="1038.21" width="37.31" height="40.62"/><rect class="cls-8" x="1102.74" y="1038.21" width="37.31" height="40.62"/><rect class="cls-8" x="804.32" y="1038.21" width="37.3" height="40.62"/><rect class="cls-8" x="1401.16" y="1038.21" width="37.3" height="40.62"/></g><g><g><rect class="cls-8" x="897.04" y="-1" width="33.03" height="35.97"/><rect class="cls-8" x="1161.31" y="-1" width="33.03" height="35.97"/><rect class="cls-8" x="1029.17" y="-1" width="33.03" height="35.97"/><rect class="cls-8" x="1293.45" y="-1" width="33.03" height="35.97"/><rect class="cls-8" x="963.11" y="-1" width="33.03" height="35.97"/><rect class="cls-8" x="1227.38" y="-1" width="33.03" height="35.97"/><rect class="cls-8" x="1095.24" y="-1" width="33.03" height="35.97"/><rect class="cls-8" x="1359.52" y="-1" width="33.03" height="35.97"/></g><g><rect class="cls-2" x="1063.26" y="35.85" width="33.03" height="35.97"/><rect class="cls-2" x="1327.53" y="35.85" width="33.03" height="35.97"/><rect class="cls-2" x="1195.39" y="35.85" width="33.03" height="35.97"/><rect class="cls-2" x="1459.67" y="35.85" width="33.03" height="35.97"/><rect class="cls-2" x="1129.33" y="35.85" width="33.03" height="35.97"/><rect class="cls-2" x="1393.6" y="35.85" width="33.03" height="35.97"/><rect class="cls-2" x="1261.46" y="35.85" width="33.03" height="35.97"/></g></g><text/><rect class="cls-2" x="-104" y="319" width="649" height="36"/><rect class="cls-2" x="492" y="344" width="512" height="11"/><text class="cls-10" transform="translate(231.01 577.25)"><tspan class="cls-15"><tspan x="0" y="0">LESEVERHALTEN UND </tspan></tspan><tspan class="cls-9" x="168" y="111">SPRACHSYSTEME</tspan><tspan class="cls-15" x="1259.98" y="111"> </tspan><tspan class="cls-15"><tspan x="252" y="222">SPIELERISCH </tspan></tspan><tspan class="cls-9"><tspan x="210" y="333">HINTERFRAGEN</tspan></tspan></text><text class="cls-16" transform="translate(74.5 299.29)"><tspan class="cls-15" x="0" y="0">H</tspan><tspan class="cls-9" x="119.4" y="0">A</tspan><tspan class="cls-15" x="238.8" y="0">CK</tspan><tspan class="cls-9" x="477.59" y="0">IN</tspan><tspan class="cls-15" x="716.39" y="0">G LANG</tspan><tspan class="cls-15"><tspan x="1293.41" y="151">UAGE </tspan></tspan></text><g><rect class="cls-4" x="860" y="412" width="339" height="227"/><g class="cls-11"><text class="cls-7" transform="translate(231.01 577.25)"><tspan class="cls-15"><tspan x="0" y="0">LESEVERHALTEN UND </tspan></tspan><tspan class="cls-9" x="168" y="111">SPRACHSYSTEME</tspan><tspan class="cls-15" x="1259.98" y="111"> </tspan><tspan class="cls-15"><tspan x="252" y="222">SPIELERISCH </tspan></tspan><tspan class="cls-9"><tspan x="210" y="333">HINTERFRAGEN</tspan></tspan></text></g></g><g class="cls-12"><text class="cls-5" transform="translate(74.5 299.29)"><tspan class="cls-15" x="0" y="0">H</tspan><tspan class="cls-9" x="119.4" y="0">A</tspan><tspan class="cls-15" x="238.8" y="0">CK</tspan><tspan class="cls-9" x="477.59" y="0">IN</tspan><tspan class="cls-15" x="716.39" y="0">G LANG</tspan><tspan class="cls-15"><tspan x="1293.41" y="151">UAGE </tspan></tspan></text></g><g><rect class="cls-3" x="468.05" y="250.45" width="71.3" height="19.5"/><rect class="cls-8" x="539.35" y="230.95" width="71.3" height="19.5"/><rect class="cls-3" x="610.65" y="250.45" width="71.3" height="19.5"/><rect class="cls-8" x="682.35" y="230.95" width="71.3" height="19.5"/><rect class="cls-3" x="753.65" y="250.45" width="71.3" height="19.5"/></g><rect class="cls-6" x="79" y="678" width="282" height="269"/><g><polygon class="cls-6" points="285 209 285 95 65 95 65 245 190 245 190 448 376 448 376 209 285 209"/><g class="cls-13"><text class="cls-5" transform="translate(74.5 299.29)"><tspan class="cls-15" x="0" y="0">H</tspan><tspan class="cls-9" x="119.4" y="0">A</tspan><tspan class="cls-15" x="238.8" y="0">CK</tspan><tspan class="cls-9" x="477.59" y="0">IN</tspan><tspan class="cls-15" x="716.39" y="0">G LANG</tspan><tspan class="cls-15"><tspan x="1293.41" y="151">UAGE </tspan></tspan></text><rect class="cls-4" x="538" y="412" width="241" height="387"/></g></g><rect class="cls-3" x="106" y="572" width="40" height="331"/><rect class="cls-6" x="672" y="405" width="157" height="43"/><rect x="778" y="61" width="157" height="43"/><rect x="756" y="61" width="31" height="26"/><rect class="cls-2" x="538" y="799" width="385" height="6"/><rect x="59" y="373" width="19" height="144"/><rect x="1463" y="121" width="457" height="33"/><g><rect x="146" y="756" width="85" height="100"/><rect x="201" y="856" width="30" height="30"/></g><rect x="1414" y="798.5" width="68" height="11.5"/><rect x="1403" y="793" width="64" height="6.3"/><rect x="150" y="298" width="35" height="11"/><rect x="178" y="304" width="35" height="11"/><rect x="495" y="910" width="35" height="11"/><rect x="1049" y="211" width="18" height="73"/><rect x="1787" y="367" width="18" height="8"/><rect x="518" y="921" width="20" height="5"/><rect x="227" y="576" width="35" height="5"/><rect x="1100" y="799" width="35" height="5"/><rect x="1129" y="803" width="35" height="5"/><rect x="284" y="169" width="22" height="11"/><rect x="356" y="519" width="34" height="4"/><rect x="430" y="150" width="22" height="6"/><g><rect class="cls-4" x="495" y="799.3" width="297" height="138.7"/><g class="cls-14"><text class="cls-7" transform="translate(231.01 577.25)"><tspan class="cls-15"><tspan x="0" y="0">LESEVERHALTEN UND </tspan></tspan><tspan class="cls-9" x="168" y="111">SPRACHSYSTEME</tspan><tspan class="cls-15" x="1259.98" y="111"> </tspan><tspan class="cls-15"><tspan x="252" y="222">SPIELERISCH </tspan></tspan><tspan class="cls-9"><tspan x="210" y="333">HINTERFRAGEN</tspan></tspan></text></g></g></svg>