<?xml version="1.0" encoding="utf-8"?>
<!-- Generator: Adobe Illustrator 27.0.1, SVG Export Plug-In . SVG Version: 6.00 Build 0)  -->
<svg version="1.1" xmlns="http://www.w3.org/2000/svg" xmlns:xlink="http://www.w3.org/1999/xlink" x="0px" y="0px"
	 viewBox="0 0 1300 800" style="enable-background:new 0 0 1300 800;" xml:space="preserve">
<style type="text/css">
	.st0{display:none;}
	.st1{display:inline;}
	.st2{display:inline;fill:none;}
	.st3{font-family:'FKRasterGroteskCompact-Blended';}
	.st4{font-size:410px;}
</style>
<g id="Ebene_1">
</g>
<g id="Ebene_2" class="st0">
	<path class="st1" d="M-1389.8-212.1l3.4,444.5l459.6,52L-1223,114.8c-58-33.2-33.8-122,33-121.1c10.1,0.1,21.2,0.8,33.4,2.2
		C-1319.3-101.4-1389.8-212.1-1389.8-212.1z"/>
	<circle class="st1" cx="-308.5" cy="372.3" r="97.5"/>
	<rect x="-929.9" y="-119.9" class="st1" width="527.3" height="27.1"/>
	<rect x="-585" y="-94.2" class="st1" width="289.3" height="7.1"/>
	<rect x="-1022.5" y="484.4" class="st1" width="71" height="127.7"/>
	<rect x="-338" y="1150.5" class="st2" width="2837.3" height="567.6"/>
	<text transform="matrix(1 0 0 1 -337.9725 1492.1736)" class="st1 st3 st4">SPRACHE</text>
	<rect x="6.9" y="119.2" class="st2" width="233.2" height="567.6"/>
	<text transform="matrix(1 0 0 1 6.9173 460.8777)" class="st1 st3 st4">S</text>
	<rect x="65.3" y="498" class="st2" width="233.2" height="567.6"/>
	<text transform="matrix(1 0 0 1 65.2767 839.6378)" class="st1 st3 st4">P</text>
	<rect x="329.2" y="181.6" class="st2" width="233.2" height="567.6"/>
	<text transform="matrix(1 0 0 1 329.158 523.2531)" class="st1 st3 st4">R</text>
	<rect x="428.4" y="535.3" class="st2" width="471.6" height="567.6"/>
	<text transform="matrix(1 0 0 1 428.4026 876.9959)" class="st1 st3 st4">A</text>
	<rect x="604.2" y="56.9" class="st2" width="471.6" height="360.8"/>
	<text transform="matrix(1 0 0 1 604.156 398.5417)" class="st1 st3 st4">C</text>
	<rect x="868.5" y="485.6" class="st2" width="353.5" height="567.6"/>
	<text transform="matrix(1 0 0 1 868.533 827.3067)" class="st1 st3 st4">H</text>
	<rect x="1000.4" y="46.9" class="st2" width="353.5" height="567.6"/>
	<text transform="matrix(1 0 0 1 1000.382 388.5303)" class="st1 st3 st4">E</text>
</g>
<g id="Ebene_2_Kopie">
	<path d="M-1389.8-212.1l3.4,444.5l459.6,52L-1223,114.8c-58-33.2-33.8-122,33-121.1c10.1,0.1,21.2,0.8,33.4,2.2
		C-1319.3-101.4-1389.8-212.1-1389.8-212.1z"/>
	<circle cx="-308.5" cy="372.3" r="97.5"/>
	<rect x="-929.9" y="-119.9" width="527.3" height="27.1"/>
	<rect x="-585" y="-94.2" width="289.3" height="7.1"/>
	<rect x="-1022.5" y="484.4" width="71" height="127.7"/>
	<rect x="-338" y="1150.5" style="fill:none;" width="2837.3" height="567.6"/>
	<text transform="matrix(1 0 0 1 -337.9725 1492.1736)" class="st3 st4">SPRACHE</text>
	<g>
		<path d="M276.7,155v98.8h-50.9v-74.1c0-14.8-10.2-24.7-25.5-24.7H47.4c-15.3,0-25.5,9.9-25.5,24.7v98.8
			c0,14.8,10.2,24.7,25.5,24.7h76.4V328c0,14.8,10.2,24.7,25.5,24.7h76.4v24.7c0,14.8,10.2,24.7,25.5,24.7h25.5v148.2h-25.5
			c-15.3,0-25.5,9.9-25.5,24.7v24.7H22V575c0-14.8-10.2-24.7-25.5-24.7H-29v-98.8H22v74.1c0,14.8,10.2,24.7,25.5,24.7h152.8
			c15.3,0,25.5-9.9,25.5-24.7v-98.8c0-14.8-10.2-24.7-25.5-24.7h-76.4v-24.7c0-14.8-10.2-24.7-25.5-24.7H22V328
			c0-14.8-10.2-24.7-25.5-24.7H-29V155h25.5c15.3,0,25.5-9.9,25.5-24.7v-24.7h203.8v24.7c0,14.8,10.2,24.7,25.5,24.7H276.7z"/>
	</g>
	<g>
		<path d="M514,60.4V197h-17.1c-10.2,0-17.1,6.8-17.1,17.1v17.1H360.2c-10.2,0-17.1,6.8-17.1,17.1v119.6H309V26.2h170.8v17.1
			c0,10.2,6.8,17.1,17.1,17.1H514z M462.7,60.4H360.2c-10.2,0-17.1,6.8-17.1,17.1v102.5c0,10.2,6.8,17.1,17.1,17.1h102.5
			c10.2,0,17.1-6.8,17.1-17.1V77.5C479.8,67.2,473,60.4,462.7,60.4z"/>
	</g>
	<g>
		<path d="M641.4,419.2v167.3h-23.9c-14.3,0-23.9,8.4-23.9,20.9v20.9h-23.9c-14.3,0-23.9,8.4-23.9,20.9s9.5,20.9,23.9,20.9h23.9
			v62.7c0,12.5,9.5,20.9,23.9,20.9h23.9v41.8h-47.7v-20.9c0-12.5-9.5-20.9-23.9-20.9H546V691c0-12.5-9.5-20.9-23.9-20.9h-23.9v-20.9
			c0-12.5-9.5-20.9-23.9-20.9h-47.7c-14.3,0-23.9,8.4-23.9,20.9v146.3h-47.7V377.4h238.5v20.9c0,12.5,9.5,20.9,23.9,20.9H641.4z
			 M569.8,419.2H426.7c-14.3,0-23.9,8.4-23.9,20.9v125.4c0,12.5,9.5,20.9,23.9,20.9h143.1c14.3,0,23.9-8.4,23.9-20.9V440.1
			C593.7,427.5,584.1,419.2,569.8,419.2z"/>
	</g>
	<g>
		<path d="M875.8,300.5v68.3h-34.2v-51.2c0-10.2-6.8-17.1-17.1-17.1h-17.1v-17.1c0-10.2-6.8-17.1-17.1-17.1h-68.3
			c-10.2,0-17.1,6.8-17.1,17.1v17.1h-17.1c-10.2,0-17.1,6.8-17.1,17.1v51.2h-34.2v-68.3h17.1c10.2,0,17.1-6.8,17.1-17.1V198h17.1
			c10.2,0,17.1-6.8,17.1-17.1V95.5h17.1c10.2,0,17.1-6.8,17.1-17.1V27.2h34.2v51.3c0,10.2,6.8,17.1,17.1,17.1h17.1V181
			c0,10.2,6.8,17.1,17.1,17.1h17.1v85.4c0,10.2,6.8,17.1,17.1,17.1H875.8z M807.5,215.1c0-10.2-6.8-17.1-17.1-17.1h-17.1v-85.4
			c0-10.2-6.8-17.1-17.1-17.1s-17.1,6.8-17.1,17.1V198h-17.1c-10.2,0-17.1,6.8-17.1,17.1s6.8,17.1,17.1,17.1h68.3
			C800.7,232.2,807.5,225.4,807.5,215.1z"/>
	</g>
	<g>
		<path d="M949.1,497.2v-17.9c0-10.7-7.2-17.9-18-17.9h-18v-17.9c0-10.7-7.2-17.9-18-17.9H787.4c-10.8,0-18,7.1-18,17.9v17.9h-18
			c-10.8,0-18,7.1-18,17.9V658c0,10.7,7.2,17.9,18,17.9h18v17.9c0,10.7,7.2,17.9,18,17.9h107.8c10.8,0,18-7.1,18-17.9v-17.9h18
			c10.8,0,18-7.1,18-17.9v-17.9H985v35.7h-18c-10.8,0-18,7.1-18,17.9v17.9h-18c-10.8,0-18,7.1-18,17.9v17.9H769.5v-17.9
			c0-10.7-7.2-17.9-18-17.9h-18v-17.9c0-10.7-7.2-17.9-18-17.9h-18V461.4h18c10.8,0,18-7.1,18-17.9v-17.9h18c10.8,0,18-7.1,18-17.9
			V390h143.7v17.9c0,10.7,7.2,17.9,18,17.9h18v17.9c0,10.7,7.2,17.9,18,17.9h18v35.7H949.1z"/>
	</g>
	<g>
		<path d="M1119.5,116.3v251.5H1097V254.6c0-7.5-4.5-12.6-11.2-12.6h-90c-6.7,0-11.2,5-11.2,12.6v113.2h-22.5V116.3h22.5v88
			c0,7.5,4.5,12.6,11.2,12.6h90c6.7,0,11.2-5,11.2-12.6v-88H1119.5z"/>
	</g>
	<g>
		<path d="M1094.4,551.4H1233v43.7h-138.7c-11.9,0-19.8,8.7-19.8,21.9v131.2c0,13.1,7.9,21.9,19.8,21.9h178.3v43.7h-237.7V376.5
			h237.7v43.7h-178.3c-11.9,0-19.8,8.7-19.8,21.9v87.4C1074.5,542.6,1082.5,551.4,1094.4,551.4z"/>
	</g>
</g>
<g id="Ebene_3">
</g>
</svg>
