<?xml version="1.0" encoding="UTF-8"?><svg id="Ebene_1" xmlns="http://www.w3.org/2000/svg" viewBox="0 0 1920 1340"><rect x="124.8" y="684.92" width="146.12" height="144.82"/><rect x="745" y="789" width="52" height="51.54"/><rect x="-30.29" y="-56" width="91.29" height="868"/><rect x="1838.71" y="490" width="91.29" height="868"/><rect x="1803.71" y="-97" width="194.29" height="868"/><rect x="941.54" y="-925.82" width="91.29" height="1913.64" transform="translate(1018.18 -956.18) rotate(90)"/><rect x="300.5" y="377.83" width="196.33" height="58.66" transform="translate(805.83 8.5) rotate(90)"/><rect x="242.5" y="357.83" width="196.33" height="58.66" transform="translate(727.83 46.5) rotate(90)"/><rect x="409.5" y="416.83" width="196.33" height="58.66" transform="translate(953.83 -61.5) rotate(90)"/><rect x="351.5" y="396.83" width="196.33" height="58.66" transform="translate(875.83 -23.5) rotate(90)"/><rect x="525.5" y="457.83" width="196.33" height="58.66" transform="translate(1110.83 -136.5) rotate(90)"/><rect x="467.5" y="437.83" width="196.33" height="58.66" transform="translate(1032.83 -98.5) rotate(90)"/><rect x="630.5" y="505.83" width="196.33" height="58.66" transform="translate(1263.83 -193.5) rotate(90)"/><rect x="572.5" y="485.83" width="196.33" height="58.66" transform="translate(1185.83 -155.5) rotate(90)"/><g><rect x="1575.11" y="310.57" width="278.46" height="25.32" transform="translate(2037.57 -1391.11) rotate(90)"/><rect x="1525.05" y="368.72" width="278.46" height="25.32" transform="translate(2045.66 -1282.89) rotate(90)"/><rect x="1550.08" y="340.36" width="278.46" height="25.32" transform="translate(2042.33 -1336.29) rotate(90)"/><rect x="1504.76" y="408.44" width="278.46" height="25.32" transform="translate(2065.09 -1222.9) rotate(90)"/></g><rect x="732.5" y="551.83" width="196.33" height="58.66" transform="translate(1411.83 -249.5) rotate(90)"/><rect x="844" y="510.33" width="196.33" height="173.66" transform="translate(1539.33 -345) rotate(90)"/><rect x="1016" y="529.33" width="196.33" height="173.66" transform="translate(1730.33 -498) rotate(90)"/><rect x="1189" y="562.33" width="196.33" height="173.66" transform="translate(1936.33 -638) rotate(90)"/><rect x="1361" y="592.33" width="196.33" height="173.66" transform="translate(2138.33 -780) rotate(90)"/><rect x="1108" y="844.33" width="196.33" height="173.66" transform="translate(2137.33 -275) rotate(90)"/><rect x="1280" y="874.33" width="196.33" height="173.66" transform="translate(2339.33 -417) rotate(90)"/><rect x="791.5" y="768.83" width="196.33" height="36.66" transform="translate(1676.83 -102.5) rotate(90)"/><rect x="801" y="762.33" width="239.33" height="36.66" transform="translate(1701.33 -140) rotate(90)"/><rect x="829" y="771.33" width="249.33" height="36.66" transform="translate(1743.33 -164) rotate(90)"/><rect x="837.5" y="764.83" width="294.33" height="36.66" transform="translate(1767.83 -201.5) rotate(90)"/><rect x="871" y="769.33" width="299.33" height="36.66" transform="translate(1808.33 -233) rotate(90)"/><rect x="932" y="814.33" width="239.33" height="36.66" transform="translate(1884.33 -219) rotate(90)"/><rect x="935" y="798.33" width="299.33" height="36.66" transform="translate(1901.33 -268) rotate(90)"/><rect x="968.5" y="816.83" width="294.33" height="36.66" transform="translate(1950.83 -280.5) rotate(90)"/><rect x="674.5" y="531.83" width="196.33" height="58.66" transform="translate(1333.83 -211.5) rotate(90)"/><rect x="105.5" y="413.5" width="370" height="47" transform="translate(727.5 146.5) rotate(90)"/><rect x="11" y="1225.94" width="1600.16" height="126.54"/><rect x="1.18" y="755" width="30.82" height="427.54"/><rect x="24.73" y="1108.15" width="46.55" height="186.85"/><rect x="712.73" y="1058.15" width="46.55" height="186.85"/><rect x="630.73" y="1007.15" width="46.55" height="186.85" transform="translate(1754.58 446.57) rotate(90)"/><rect x="747.73" y="1130.15" width="46.55" height="186.85"/><rect x="68.02" y="1190.94" width="171.88" height="104.06"/><rect x="122.17" y="953.2" width="142.1" height="64.75"/></svg>