<?xml version="1.0" encoding="UTF-8"?><svg id="Ebene_1" xmlns="http://www.w3.org/2000/svg" viewBox="0 0 1920 1340"><text/><rect x="1710" y="689.48" width="180.16" height="427.52"/><text/><rect x="1839.89" y="800.74" width="80.11" height="218.56"/><rect x="939" y="776" width="157" height="43"/><rect x="718.71" y="47.94" width="99.03" height="83.06"/><rect x="427" y="809" width="154" height="152.63"/><rect x="1750" y="296" width="52" height="51.54"/><rect x="1039" y="1046" width="52" height="51.54"/><rect x="120" y="540" width="19" height="144"/><rect x="1628" y="85" width="19" height="144"/><rect x="526.65" y="961.63" width="54.35" height="45.79"/><rect x="112.71" y="218.06" width="339.05" height="54.28"/><rect x="383.95" y="247.66" width="339.05" height="54.28"/><rect x="1213.71" y="1225.94" width="397.44" height="126.54"/><rect x="1063.71" y="500" width="38.29" height="372.94"/><rect x="1092.71" y="531" width="236.29" height="372.94"/><rect x="1.71" y="920.92" width="30.65" height="298.55"/><rect x="26.53" y="1141.07" width="49.06" height="196.93"/><rect x="72.16" y="1228.33" width="181.15" height="109.67"/><rect x="129.23" y="977.76" width="97.67" height="340.23"/><rect x="249.31" y="740" width="97.67" height="598"/></svg>