<?xml version="1.0" encoding="UTF-8"?><svg id="Ebene_1" xmlns="http://www.w3.org/2000/svg" viewBox="0 0 1920 1340"><text/><rect x="1601.24" y="828.08" width="427.52" height="180.16"/><text/><rect x="1712.5" y="798.24" width="218.56" height="80.11"/><rect x="649.21" y="-5.89" width="99.03" height="83.06"/><rect x="124.8" y="684.92" width="146.12" height="144.82"/><rect x="745" y="789" width="52" height="51.54"/><polygon points="1748.52 203.75 1748.52 121 1575 121 1575 356.98 1748.52 356.98 1748.52 275.3 1676.33 275.3 1676.33 203.75 1748.52 203.75"/><rect x="-52.29" y="175.06" width="111.29" height="58.94"/><rect x="57.16" y="498.06" width="55.3" height="55.93"/><rect x="-30.29" y="291.06" width="91.29" height="207.94"/><rect x="882.95" y="1049.66" width="339.05" height="54.28"/><rect x="1213.71" y="1225.94" width="397.44" height="126.54"/><rect x="1.18" y="899.27" width="29.08" height="283.27"/><rect x="24.73" y="1108.15" width="46.55" height="186.85"/><rect x="68.02" y="1190.94" width="171.88" height="104.06"/><rect x="122.17" y="953.2" width="142.1" height="64.75"/><rect x="-8.69" y="631.78" width="213.19" height="567.39"/><rect x="1745.13" y="204.93" width="72.18" height="71.54"/></svg>