<?xml version="1.0" encoding="UTF-8"?><svg id="Ebene_1" xmlns="http://www.w3.org/2000/svg" viewBox="0 0 1920 1340"><text/><rect x="1710" y="689.48" width="180.16" height="427.52"/><g><rect x="265.92" y="1090.77" width="37.3" height="40.62"/><rect x="-32.5" y="1090.77" width="37.3" height="40.62"/><rect x="564.34" y="1090.77" width="37.3" height="40.62"/><rect x="415.13" y="1090.77" width="37.3" height="40.62"/><rect x="116.71" y="1090.77" width="37.3" height="40.62"/><rect x="713.55" y="1090.77" width="37.3" height="40.62"/><rect x="340.53" y="1090.77" width="37.3" height="40.62"/><rect x="42.11" y="1090.77" width="37.3" height="40.62"/><rect x="638.95" y="1090.77" width="37.3" height="40.62"/><rect x="489.74" y="1090.77" width="37.3" height="40.62"/><rect x="191.32" y="1090.77" width="37.3" height="40.62"/><rect x="788.16" y="1090.77" width="37.3" height="40.62"/></g><g><rect x="288" y="1111.15" width="37.3" height="40.62"/><rect x="-10.42" y="1111.15" width="37.3" height="40.62"/><rect x="586.42" y="1111.15" width="37.3" height="40.62"/><rect x="437.21" y="1111.15" width="37.3" height="40.62"/><rect x="138.79" y="1111.15" width="37.3" height="40.62"/><rect x="735.63" y="1111.15" width="37.3" height="40.62"/><rect x="362.61" y="1111.15" width="37.3" height="40.62"/><rect x="64.19" y="1111.15" width="37.3" height="40.62"/><rect x="661.03" y="1111.15" width="37.3" height="40.62"/><rect x="511.82" y="1111.15" width="37.3" height="40.62"/><rect x="213.4" y="1111.15" width="37.3" height="40.62"/><rect x="810.24" y="1111.15" width="37.3" height="40.62"/></g><text/><rect x="-141" y="379" width="649" height="36"/><rect x="1839.89" y="800.74" width="136.11" height="218.56"/><rect x="939" y="776" width="157" height="43"/><rect x="718.71" y="47.94" width="99.03" height="83.06"/><rect x="427" y="809" width="154" height="152.63"/><rect x="1750" y="296" width="52" height="51.54"/><rect x="120" y="540" width="19" height="144"/><rect x="1628" y="85" width="19" height="144"/><rect x="526.65" y="961.63" width="54.35" height="45.79"/><rect x="112.71" y="218.06" width="339.05" height="54.28"/><rect x="383.95" y="247.66" width="339.05" height="54.28"/><rect x="1478.71" y="1222.94" width="251.16" height="59.16"/><rect x="1011.71" y="-102" width="38.29" height="372.94"/><rect x="1643.77" y="1282.11" width="143.52" height="26.89"/></svg>